# xmcd CD database file
#
# Track frame offsets:
#	150
#	31016
#	57330
#	80969
#	113447
#	147235
#	177068
#	193855
#	207267
#	223601
#	237067
#	249962
#	270639
#	284529
#	298256
#
# Disc length: 4196 seconds
#
# Revision: 4
# Processed by: cddbd v1.4PL0 Copyright (c) Steve Scherf et al.
# Submitted via: CDex 1.50Beta7
#
DISCID=e110620f
DTITLE=Paul Chambers - Wynton Kelly - The Complete Vee Jay Sessions 1959-61 [CD5]
DYEAR=1900
DGENRE=Jazz
TTITLE0=Pot Luck
TTITLE1=Skatin'
TTITLE2=On Stage
TTITLE3=Weird Lullaby
TTITLE4=Temperance
TTITLE5=Scotch And Water (tk 1)
TTITLE6=Scotch And Water (tk 4)
TTITLE7=Scotch And Water (tk 8)
TTITLE8=Scotch And Water (tk 9)
TTITLE9=Scotch And Water (tk 10)
TTITLE10=Scotch And Water
TTITLE11=Someday My Prince Will Come (tk 2)
TTITLE12=Someday My Prince Will Come (tk 3)
TTITLE13=Someday My Prince Will Come (tk 5)
TTITLE14=Someday My Prince Will Come (tk 6)
EXTD=MD6-205
EXTT0=
EXTT1=
EXTT2=
EXTT3=
EXTT4=
EXTT5=
EXTT6=
EXTT7=
EXTT8=
EXTT9=
EXTT10=
EXTT11=
EXTT12=
EXTT13=
EXTT14=
PLAYORDER=
